PathFileType	4	(X/Y/Z)	Patient4_TMGait_0pt4_03_right_40.trc.trc
DataRate	CameraRate	NumFrames	NumMarkers	Units	OrigDataRate	OrigDataStartFrame	OrigNumFrames
77.777777777778	77.777777777778	4	33	mm	77.777777777778	89	       141
Frame#	Time	Sacral			L.Shoulder			Chest			R.Shoulder			Neck			R.ASIS			L.ASIS			R.Thigh.Superior			R.Thigh.Lateral			R.Thigh.Inferior			R.Patella			L.Thigh.Superior			L.Thigh.Lateral			L.Thigh.Inferior			L.Patella			L.Shank.Superior			L.Shank.Lateral			L.Shank.Inferior			R.Shank.Superior			R.Shank.Lateral			R.Shank.Inferior			R.Heel			R.Midfoot.Superior			R.Midfoot.Lateral			R.Toe			L.Heel			L.Midfoot.Lateral			L.Midfoot.Superior			L.Toe			L.Elbow			L.Wrist			R.Elbow			R.Wrist			
		X1	Y1	Z1	X2	Y2	Z2	X3	Y3	Z3	X4	Y4	Z4	X5	Y5	Z5	X6	Y6	Z6	X7	Y7	Z7	X8	Y8	Z8	X9	Y9	Z9	X10	Y10	Z10	X11	Y11	Z11	X12	Y12	Z12	X13	Y13	Z13	X14	Y14	Z14	X15	Y15	Z15	X16	Y16	Z16	X17	Y17	Z17	X18	Y18	Z18	X19	Y19	Z19	X20	Y20	Z20	X21	Y21	Z21	X22	Y22	Z22	X23	Y23	Z23	X24	Y24	Z24	X25	Y25	Z25	X26	Y26	Z26	X27	Y27	Z27	X28	Y28	Z28	X29	Y29	Z29	X30	Y30	Z30	X31	Y31	Z31	X32	Y32	Z32	X33	Y33	Z33	

89	53.521428571429	921.703233005893	1005.107379005604	466.199014817692	1086.568546218324	1425.261407053448	261.928094774835	1203.031341572975	1361.619927824679	415.487723503275	1136.884965787541	1442.498894245092	592.954050998082	1086.051841092138	1493.566531262486	416.649839684615	1155.636432220520	939.175413907947	568.665824689857	1127.086811839508	959.852820775903	295.857349651899	1196.081839423418	736.407421364451	549.700633486089	1121.075650696610	628.984581685830	624.028266388737	1198.969578546679	568.402138232913	548.975763126336	1192.838736120771	462.262173238083	572.765662198741	1191.377940001309	758.973573966100	321.946249212797	1112.312333293719	636.019781188844	264.836637287341	1207.268003819954	566.549980519608	322.134341600912	1213.839118463264	496.476464080808	330.285490437223	1189.165225666804	422.573017908805	323.947202526734	1101.890277124677	305.062142402188	274.482818138918	1159.610917829055	195.203427316544	343.669567615568	1118.569111721003	393.304482511914	583.157562523760	1002.851346861707	349.891753549299	651.417531506393	990.108252027380	239.970998385628	602.504567949245	790.400721697911	160.197419565958	586.614031664115	965.193463696891	123.403704560640	618.786397010126	859.356917042111	109.821574427236	658.118752050201	1044.826437385408	32.682075492695	643.037530503428	1037.470789138833	38.919944300393	389.187889695761	1109.853446591324	35.756889752882	307.087286059828	1193.350176437580	96.960370007097	333.394923854880	1321.343149166228	46.055375016646	302.185386442542	1028.237870444871	1069.819784470567	165.644112666673	1117.406421488664	823.944790732321	156.506105490745	1221.135071490148	1107.293329675448	708.168748655853	1454.473432958722	1107.221137868584	612.901270808773	
90	53.534285714286	921.549383602242	1005.485654803649	462.945796274149	1088.648221976955	1425.292991533876	258.676800548352	1203.562913310092	1361.971256754921	413.520638008231	1135.731155557127	1443.144271059173	590.281500050364	1086.632978365316	1493.942804995109	413.307596153501	1154.965955753909	939.748660244064	566.907632426667	1128.053622178114	960.123078553652	294.070474850102	1200.584197650460	739.480578579970	548.240646304050	1128.144002712133	630.557628336375	622.636737808774	1208.105786959378	571.401226448951	548.160622038605	1203.359272946815	464.328445076090	572.205036514154	1190.559068706788	758.266522846586	319.963166314163	1110.494151623588	636.126087376590	262.986010135183	1204.524670423472	565.850650587833	320.710911925886	1210.417311569431	495.842690797494	328.967802884886	1185.519059412995	422.091143232091	322.756145026720	1097.858328356826	304.791179582460	273.546483092439	1155.044738427208	194.946632835771	343.165052073810	1127.650486746295	395.644567857264	582.421742919026	1010.415271185668	355.494189869869	650.172318322010	995.392698450293	245.571246518310	602.047983212909	794.060148257992	172.857232628674	585.619929075055	967.288821234387	128.476574998966	618.420040337873	860.548644383670	119.460827597934	657.313184828040	1042.430708772946	32.375261429358	642.951750635308	1032.314246403797	38.939648931327	389.082350528711	1104.687962901317	35.696052363883	306.976415174670	1188.223404158457	96.833395380726	333.256384049539	1316.214839346858	45.820759814275	302.097575116003	1036.073594716703	1069.393869035499	160.296800337490	1132.560731937793	826.145034194911	152.393695828654	1213.635888277587	1105.963848348875	706.033369024850	1448.617489669349	1088.217636278396	614.385238358392	
91	53.547142857143	921.341457091056	1005.892057519453	459.880577774265	1090.663854950174	1425.320737820061	255.641929743778	1204.050331533460	1362.304780834633	411.722410645835	1134.588900923271	1443.737675849789	587.800810307449	1087.248594643765	1494.330970638245	410.174742858037	1154.195122567082	940.341880216092	565.109091963688	1128.856186747388	960.440194739454	292.363826738373	1204.729836812650	742.783761858938	546.707672353256	1134.973585161646	632.471442912708	621.373324711866	1216.843657641907	574.814597104617	547.402205846323	1213.675911819172	466.904038075551	571.683126068967	1189.646017980534	757.626265946616	318.073204985596	1108.495451047215	636.249250520245	261.284329521136	1201.663714478761	565.173683395474	319.367649411349	1206.885577195372	495.246663693613	327.792600049246	1181.791800822464	421.664754387834	321.691377503395	1093.774299626398	304.578241686533	272.719628642315	1150.441282340286	194.728875283605	342.720108178323	1136.753541934331	398.328749662318	581.724162451063	1018.209016098052	361.048138474736	648.940396321008	1001.184547681792	251.175015000463	601.509390129877	798.656972559138	184.743293577975	584.444456933747	970.285788682507	133.721301524518	617.991093430735	862.816261436183	128.729696877664	656.357228091728	1041.296551193464	32.482200729403	642.803797223139	1027.168230065180	38.964826732348	388.979556567787	1099.532873209533	35.655008759271	306.869396925098	1183.100750247813	96.729264498702	333.125252442353	1311.088248982061	45.624470569134	302.008838764680	1044.292425398344	1069.064184306500	155.089568639906	1147.717562846640	828.559368935122	148.483404429863	1205.790421557970	1104.599535836826	704.069951637440	1441.152997942298	1068.603795810507	616.777579186663	
92	53.560000000000	921.092965684981	1006.350447305024	456.991986757836	1092.605449824289	1425.378301979378	252.830942729916	1204.498019856375	1362.645871351212	410.084687642307	1133.476188597838	1444.295256222353	585.507305282170	1087.907255271316	1494.746433102182	407.262333602461	1153.340362210733	940.988422560019	563.266739586417	1129.522358357157	960.801088716108	290.732546197716	1208.449754628189	746.283325606488	545.107105458734	1141.476785385522	634.721045148984	620.250968696225	1225.074466642389	578.614053636959	546.694259446995	1223.675633761292	469.966267389737	571.238498978641	1188.664916883376	757.031321740013	316.264185165758	1106.327610403531	636.377522457724	259.749444360743	1198.695533422218	564.510355384293	318.118813791671	1203.256720969614	494.686222065002	326.780708906383	1177.993952422613	421.292873561475	320.771966669810	1089.649649059968	304.424576068301	272.014897044357	1145.797945619992	194.546632615474	342.348296571398	1145.800679834490	401.327413077888	581.110205994955	1026.153349773014	366.417142935992	647.761999269412	1007.519803551860	256.602248246389	600.935102902738	804.204982908803	195.387220461971	583.153295266520	974.340403805241	138.907415421221	617.545359538725	866.294935383585	137.221664945662	655.300927871890	1041.767563330918	33.063732199268	642.590142928245	1022.025678589820	38.994049015316	388.881833242150	1094.382558189524	35.632256030611	306.769492670532	1177.978335719136	96.644718772522	333.006436218469	1305.959887024623	45.457934435687	301.921514002696	1052.841019632643	1068.874689373026	150.081026116395	1162.829535874631	831.208095217900	144.802626123643	1197.651416845568	1103.257130946086	702.302806362385	1431.976420958852	1048.504082422543	620.109700202700	
